{"title":"Dallas.Buyers.Club.2013.BRRiP.XViD.AC3-FiRE","uid":9517762,"size":1461004611,"categoryP":"video","categoryS":"movies","magnet":"?xt=urn:btih:e41045fe27013c11572dc92ce87891d6dd176182&amp;dn=Dallas.Buyers.Club.2013.BRRiP.XViD.AC3-FiRE&amp;tr=udp%3A%2F%2Ftracker.openbittorrent.com%3A80&amp;tr=udp%3A%2F%2Fopen.demonii.com%3A1337&amp;tr=udp%3A%2F%2Ftracker.coppersurfer.tk%3A6969&amp;tr=udp%3A%2F%2Fexodus.desync.com%3A6969","seeders":10,"leechers":2,"uploader":"Acesn8s","files":-1,"time":1390561838,"description":"Dallas.Buyers.Club.2013.BRRiP.XViD.AC3-FiRE\n\n**********************************************************************************\n\nFormat                                   : AVI\nFormat/Info                              : Audio Video Interleave\nFile size                                : 1.36 GiB\nDuration                                 : 1h 56mn\nOverall bit rate                         : 1 666 Kbps\nWriting application                      : VirtualDubMod 1.5.10.2\nWriting library                          : VirtualDubMod build 2542/release\n\n**********************************************************************************\n\nVideo\n\nID                                       : 0\nFormat                                   : MPEG-4 Visual\nFormat profile                           : Advanced Simple@L5\nFormat settings, BVOP                    : 2\nFormat settings, QPel                    : No\nFormat settings, GMC                     : No warppoints\nFormat settings, Matrix                  : Default (MPEG)\nMuxing mode                              : Packed bitstream\nCodec ID                                 : XVID\nCodec ID/Hint                            : XviD\nDuration                                 : 1h 56mn\nBit rate                                 : 1 464 Kbps\nWidth                                    : 720 pixels\nHeight                                   : 300 pixels\nDisplay aspect ratio                     : 2.40:1\nFrame rate                               : 23.976 fps\nColor space                              : YUV\nChroma subsampling                       : 4:2:0\nBit depth                                : 8 bits\nScan type                                : Progressive\nCompression mode                         : Lossy\nBits/(Pixel*Frame)                       : 0.283\nStream size                              : 1.20 GiB (88%)\nWriting library                          : XviD 58\n\n**********************************************************************************\n\nAudio\n\nID                                       : 1\nFormat                                   : AC-3\nFormat/Info                              : Audio Coding 3\nMode extension                           : CM (complete main)\nFormat settings, Endianness              : Big\nCodec ID                                 : 2000\nDuration                                 : 1h 56mn\nBit rate mode                            : Constant\nBit rate                                 : 192 Kbps\nChannel(s)                               : 6 channels\nChannel positions                        : Front: L C R, Side: L R, LFE\nSampling rate                            : 48.0 KHz\nBit depth                                : 16 bits\nCompression mode                         : Lossy\nStream size                              : 161 MiB (12%)\nAlignment                                : Split accross interleaves\nInterleave, duration                     : 42 ms (1.00 video frame)\nInterleave, preload duration             : 500 ms\nSource                                   : SPARKS (thx)\n\n**********************************************************************************\n\nGenre \n\nBiography | Drama | History  \n\nActors\n\nMatthew McConaughey, Jennifer Garner, Jared Leto  \n\nPlot\n\nIn 1985 Dallas, electrician and hustler Ron Woodroof works around the system to help AIDS patients get the medication they need after he is himself diagnosed with the disease. \n\n**********************************************************************************\n\nIMDb\n  &lt;a href=&quot;\nhttp://www.imdb.com/title/tt0790636/&quot; rel=&quot;nofollow&quot; target=&quot;_NEW&quot;&gt;\nhttp://www.imdb.com/title/tt0790636/&lt;/a&gt;\n\n**********************************************************************************\n\nScreens\n &lt;a href=&quot;\nhttp://img.acianetmedia.com/i/nuZ9x.jpg&quot; rel=&quot;nofollow&quot; target=&quot;_NEW&quot;&gt;\nhttp://img.acianetmedia.com/i/nuZ9x.jpg&lt;/a&gt;\n &lt;a href=&quot;\nhttp://img.acianetmedia.com/i/MlP7F.jpg&quot; rel=&quot;nofollow&quot; target=&quot;_NEW&quot;&gt;\nhttp://img.acianetmedia.com/i/MlP7F.jpg&lt;/a&gt;\n &lt;a href=&quot;\nhttp://img.acianetmedia.com/i/sKzQA.jpg&quot; rel=&quot;nofollow&quot; target=&quot;_NEW&quot;&gt;\nhttp://img.acianetmedia.com/i/sKzQA.jpg&lt;/a&gt;\n &lt;a href=&quot;\nhttp://img.acianetmedia.com/i/jL6c.jpg&quot; rel=&quot;nofollow&quot; target=&quot;_NEW&quot;&gt;\nhttp://img.acianetmedia.com/i/jL6c.jpg&lt;/a&gt;\n &lt;a href=&quot;\nhttp://img.acianetmedia.com/i/ChqQ.jpg&quot; rel=&quot;nofollow&quot; target=&quot;_NEW&quot;&gt;\nhttp://img.acianetmedia.com/i/ChqQ.jpg&lt;/a&gt;","torrent":{"xt":"urn:btih:e41045fe27013c11572dc92ce87891d6dd176182","amp;dn":"Dallas.Buyers.Club.2013.BRRiP.XViD.AC3-FiRE","amp;tr":["udp%3A%2F%2Ftracker.openbittorrent.com%3A80","udp%3A%2F%2Fopen.demonii.com%3A1337","udp%3A%2F%2Ftracker.coppersurfer.tk%3A6969","udp%3A%2F%2Fexodus.desync.com%3A6969"],"infoHash":"e41045fe27013c11572dc92ce87891d6dd176182","infoHashBuffer":{"type":"Buffer","data":[228,16,69,254,39,1,60,17,87,45,201,44,232,120,145,214,221,23,97,130]},"announce":[],"urlList":[]}}